<mxfile host="app.diagrams.net" agent="Mozilla/5.0 (Windows NT 10.0; Win64; x64) AppleWebKit/537.36 (KHTML, like Gecko) Chrome/135.0.0.0 Safari/537.36" version="26.2.12">
  <diagram name="第 1 页" id="1-BLOxt3ObJG5c-1yq0U">
    <mxGraphModel dx="651" dy="318" grid="1" gridSize="10" guides="1" tooltips="1" connect="1" arrows="1" fold="1" page="1" pageScale="1" pageWidth="827" pageHeight="1169" math="0" shadow="0">
      <root>
        <mxCell id="0" />
        <mxCell id="1" parent="0" />
        <mxCell id="773CiDnMZboS-NVxE9lQ-1" value="" style="rounded=1;whiteSpace=wrap;html=1;fontFamily=Helvetica;fontSize=11;labelBackgroundColor=default;fillColor=#eeeeee;strokeColor=#36393d;dashed=1;dashPattern=8 8;" vertex="1" parent="1">
          <mxGeometry x="149" y="196.5" width="366" height="140" as="geometry" />
        </mxCell>
        <mxCell id="773CiDnMZboS-NVxE9lQ-4" style="rounded=0;orthogonalLoop=1;jettySize=auto;html=1;entryX=0;entryY=0.5;entryDx=0;entryDy=0;endArrow=classicThin;endFill=1;" edge="1" parent="1" source="773CiDnMZboS-NVxE9lQ-5" target="773CiDnMZboS-NVxE9lQ-10">
          <mxGeometry relative="1" as="geometry" />
        </mxCell>
        <mxCell id="773CiDnMZboS-NVxE9lQ-5" value="源图像&lt;font face=&quot;Times New Roman&quot;&gt;1&lt;/font&gt;" style="rounded=0;whiteSpace=wrap;html=1;fontFamily=宋体;fontSource=https%3A%2F%2Ffonts.googleapis.com%2Fcss%3Ffamily%3D%25E5%25AE%258B%25E4%25BD%2593;fillColor=#dae8fc;strokeColor=#6c8ebf;" vertex="1" parent="1">
          <mxGeometry x="158" y="212.5" width="68" height="22" as="geometry" />
        </mxCell>
        <mxCell id="773CiDnMZboS-NVxE9lQ-6" style="edgeStyle=none;shape=connector;rounded=0;orthogonalLoop=1;jettySize=auto;html=1;entryX=0;entryY=0.5;entryDx=0;entryDy=0;strokeColor=default;align=center;verticalAlign=middle;fontFamily=Helvetica;fontSize=11;fontColor=default;labelBackgroundColor=default;endArrow=classicThin;endFill=1;" edge="1" parent="1" source="773CiDnMZboS-NVxE9lQ-7" target="773CiDnMZboS-NVxE9lQ-11">
          <mxGeometry relative="1" as="geometry" />
        </mxCell>
        <mxCell id="773CiDnMZboS-NVxE9lQ-7" value="源图像&lt;font face=&quot;Times New Roman&quot;&gt;2&lt;/font&gt;" style="rounded=0;whiteSpace=wrap;html=1;fontFamily=宋体;fontSource=https%3A%2F%2Ffonts.googleapis.com%2Fcss%3Ffamily%3D%25E5%25AE%258B%25E4%25BD%2593;fillColor=#d5e8d4;strokeColor=#82b366;" vertex="1" parent="1">
          <mxGeometry x="158" y="252.5" width="68" height="22" as="geometry" />
        </mxCell>
        <mxCell id="773CiDnMZboS-NVxE9lQ-8" style="edgeStyle=none;shape=connector;rounded=0;orthogonalLoop=1;jettySize=auto;html=1;entryX=0;entryY=0.5;entryDx=0;entryDy=0;strokeColor=default;align=center;verticalAlign=middle;fontFamily=Helvetica;fontSize=11;fontColor=default;labelBackgroundColor=default;endArrow=classicThin;endFill=1;" edge="1" parent="1" source="773CiDnMZboS-NVxE9lQ-9" target="773CiDnMZboS-NVxE9lQ-12">
          <mxGeometry relative="1" as="geometry" />
        </mxCell>
        <mxCell id="773CiDnMZboS-NVxE9lQ-9" value="源图像&lt;font face=&quot;Times New Roman&quot;&gt;n&lt;/font&gt;" style="rounded=0;whiteSpace=wrap;html=1;fontFamily=宋体;fontSource=https%3A%2F%2Ffonts.googleapis.com%2Fcss%3Ffamily%3D%25E5%25AE%258B%25E4%25BD%2593;fillColor=#ffe6cc;strokeColor=#d79b00;" vertex="1" parent="1">
          <mxGeometry x="158" y="299.5" width="68" height="22" as="geometry" />
        </mxCell>
        <mxCell id="773CiDnMZboS-NVxE9lQ-23" style="edgeStyle=none;shape=connector;rounded=0;orthogonalLoop=1;jettySize=auto;html=1;entryX=0;entryY=0.5;entryDx=0;entryDy=0;strokeColor=default;align=center;verticalAlign=middle;fontFamily=Helvetica;fontSize=11;fontColor=default;labelBackgroundColor=default;endArrow=classicThin;endFill=1;" edge="1" parent="1" source="773CiDnMZboS-NVxE9lQ-10" target="773CiDnMZboS-NVxE9lQ-20">
          <mxGeometry relative="1" as="geometry" />
        </mxCell>
        <mxCell id="773CiDnMZboS-NVxE9lQ-10" value="预处理" style="rounded=0;whiteSpace=wrap;html=1;fontFamily=宋体;fontSource=https%3A%2F%2Ffonts.googleapis.com%2Fcss%3Ffamily%3D%25E5%25AE%258B%25E4%25BD%2593;" vertex="1" parent="1">
          <mxGeometry x="250" y="212.5" width="68" height="22" as="geometry" />
        </mxCell>
        <mxCell id="773CiDnMZboS-NVxE9lQ-24" style="edgeStyle=none;shape=connector;rounded=0;orthogonalLoop=1;jettySize=auto;html=1;entryX=0;entryY=0.5;entryDx=0;entryDy=0;strokeColor=default;align=center;verticalAlign=middle;fontFamily=Helvetica;fontSize=11;fontColor=default;labelBackgroundColor=default;endArrow=classicThin;endFill=1;" edge="1" parent="1" source="773CiDnMZboS-NVxE9lQ-11" target="773CiDnMZboS-NVxE9lQ-21">
          <mxGeometry relative="1" as="geometry" />
        </mxCell>
        <mxCell id="773CiDnMZboS-NVxE9lQ-11" value="预处理" style="rounded=0;whiteSpace=wrap;html=1;fontFamily=宋体;fontSource=https%3A%2F%2Ffonts.googleapis.com%2Fcss%3Ffamily%3D%25E5%25AE%258B%25E4%25BD%2593;" vertex="1" parent="1">
          <mxGeometry x="250" y="252.5" width="68" height="22" as="geometry" />
        </mxCell>
        <mxCell id="773CiDnMZboS-NVxE9lQ-25" style="edgeStyle=none;shape=connector;rounded=0;orthogonalLoop=1;jettySize=auto;html=1;entryX=0;entryY=0.5;entryDx=0;entryDy=0;strokeColor=default;align=center;verticalAlign=middle;fontFamily=Helvetica;fontSize=11;fontColor=default;labelBackgroundColor=default;endArrow=classicThin;endFill=1;" edge="1" parent="1" source="773CiDnMZboS-NVxE9lQ-12" target="773CiDnMZboS-NVxE9lQ-22">
          <mxGeometry relative="1" as="geometry" />
        </mxCell>
        <mxCell id="773CiDnMZboS-NVxE9lQ-12" value="预处理" style="rounded=0;whiteSpace=wrap;html=1;fontFamily=宋体;fontSource=https%3A%2F%2Ffonts.googleapis.com%2Fcss%3Ffamily%3D%25E5%25AE%258B%25E4%25BD%2593;" vertex="1" parent="1">
          <mxGeometry x="250" y="299.5" width="68" height="22" as="geometry" />
        </mxCell>
        <mxCell id="773CiDnMZboS-NVxE9lQ-13" value="" style="endArrow=none;dashed=1;html=1;dashPattern=1 3;strokeWidth=2;rounded=0;strokeColor=default;align=center;verticalAlign=middle;fontFamily=宋体;fontSize=11;fontColor=default;labelBackgroundColor=default;exitX=1;exitY=0.5;exitDx=0;exitDy=0;fontSource=https%3A%2F%2Ffonts.googleapis.com%2Fcss%3Ffamily%3D%25E5%25AE%258B%25E4%25BD%2593;" edge="1" parent="1">
          <mxGeometry width="50" height="50" relative="1" as="geometry">
            <mxPoint x="182.5" y="287.5" as="sourcePoint" />
            <mxPoint x="201.5" y="287.5" as="targetPoint" />
          </mxGeometry>
        </mxCell>
        <mxCell id="773CiDnMZboS-NVxE9lQ-14" style="edgeStyle=none;shape=connector;rounded=0;orthogonalLoop=1;jettySize=auto;html=1;entryX=0;entryY=0.5;entryDx=0;entryDy=0;strokeColor=default;align=center;verticalAlign=middle;fontFamily=Helvetica;fontSize=11;fontColor=default;labelBackgroundColor=default;endArrow=classicThin;endFill=1;" edge="1" parent="1" source="773CiDnMZboS-NVxE9lQ-15" target="773CiDnMZboS-NVxE9lQ-16">
          <mxGeometry relative="1" as="geometry" />
        </mxCell>
        <mxCell id="773CiDnMZboS-NVxE9lQ-15" value="特征级融合" style="rounded=0;whiteSpace=wrap;html=1;fontFamily=宋体;fontSource=https%3A%2F%2Ffonts.googleapis.com%2Fcss%3Ffamily%3D%25E5%25AE%258B%25E4%25BD%2593;" vertex="1" parent="1">
          <mxGeometry x="437" y="205" width="23" height="123" as="geometry" />
        </mxCell>
        <mxCell id="773CiDnMZboS-NVxE9lQ-16" value="视觉任务" style="rounded=0;whiteSpace=wrap;html=1;fontFamily=宋体;fontSource=https%3A%2F%2Ffonts.googleapis.com%2Fcss%3Ffamily%3D%25E5%25AE%258B%25E4%25BD%2593;" vertex="1" parent="1">
          <mxGeometry x="482" y="205" width="23" height="123" as="geometry" />
        </mxCell>
        <mxCell id="773CiDnMZboS-NVxE9lQ-20" value="特征提取" style="rounded=0;whiteSpace=wrap;html=1;fontFamily=宋体;fontSource=https%3A%2F%2Ffonts.googleapis.com%2Fcss%3Ffamily%3D%25E5%25AE%258B%25E4%25BD%2593;" vertex="1" parent="1">
          <mxGeometry x="342" y="212.5" width="68" height="22" as="geometry" />
        </mxCell>
        <mxCell id="773CiDnMZboS-NVxE9lQ-21" value="特征提取" style="rounded=0;whiteSpace=wrap;html=1;fontFamily=宋体;fontSource=https%3A%2F%2Ffonts.googleapis.com%2Fcss%3Ffamily%3D%25E5%25AE%258B%25E4%25BD%2593;" vertex="1" parent="1">
          <mxGeometry x="342" y="252.5" width="68" height="22" as="geometry" />
        </mxCell>
        <mxCell id="773CiDnMZboS-NVxE9lQ-22" value="特征提取" style="rounded=0;whiteSpace=wrap;html=1;fontFamily=宋体;fontSource=https%3A%2F%2Ffonts.googleapis.com%2Fcss%3Ffamily%3D%25E5%25AE%258B%25E4%25BD%2593;" vertex="1" parent="1">
          <mxGeometry x="342" y="299.5" width="68" height="22" as="geometry" />
        </mxCell>
        <mxCell id="773CiDnMZboS-NVxE9lQ-27" style="edgeStyle=none;shape=connector;rounded=0;orthogonalLoop=1;jettySize=auto;html=1;entryX=-0.006;entryY=0.145;entryDx=0;entryDy=0;entryPerimeter=0;strokeColor=default;align=center;verticalAlign=middle;fontFamily=Helvetica;fontSize=11;fontColor=default;labelBackgroundColor=default;endArrow=classicThin;endFill=1;" edge="1" parent="1" source="773CiDnMZboS-NVxE9lQ-20" target="773CiDnMZboS-NVxE9lQ-15">
          <mxGeometry relative="1" as="geometry" />
        </mxCell>
        <mxCell id="773CiDnMZboS-NVxE9lQ-28" style="edgeStyle=none;shape=connector;rounded=0;orthogonalLoop=1;jettySize=auto;html=1;entryX=-0.036;entryY=0.475;entryDx=0;entryDy=0;entryPerimeter=0;strokeColor=default;align=center;verticalAlign=middle;fontFamily=Helvetica;fontSize=11;fontColor=default;labelBackgroundColor=default;endArrow=classicThin;endFill=1;" edge="1" parent="1" source="773CiDnMZboS-NVxE9lQ-21" target="773CiDnMZboS-NVxE9lQ-15">
          <mxGeometry relative="1" as="geometry" />
        </mxCell>
        <mxCell id="773CiDnMZboS-NVxE9lQ-29" style="edgeStyle=none;shape=connector;rounded=0;orthogonalLoop=1;jettySize=auto;html=1;entryX=-0.056;entryY=0.862;entryDx=0;entryDy=0;entryPerimeter=0;strokeColor=default;align=center;verticalAlign=middle;fontFamily=Helvetica;fontSize=11;fontColor=default;labelBackgroundColor=default;endArrow=classicThin;endFill=1;" edge="1" parent="1" source="773CiDnMZboS-NVxE9lQ-22" target="773CiDnMZboS-NVxE9lQ-15">
          <mxGeometry relative="1" as="geometry" />
        </mxCell>
      </root>
    </mxGraphModel>
  </diagram>
</mxfile>
